<svg xmlns="http://www.w3.org/2000/svg" viewBox="0 0 30 30"><defs><style>.a{fill:#fff;}</style></defs><title>account</title><path class="a" d="M6667.22,25a15,15,0,1,1-15,15A15.11,15.11,0,0,1,6667.22,25Zm9,24.22A13,13,0,0,0,6679.08,35a12.89,12.89,0,1,0-20.91,14.22,9.08,9.08,0,0,1,2.92-5.81,8.75,8.75,0,0,1,6-2.44,8.62,8.62,0,0,1,5.47,1.85,9.15,9.15,0,0,1,3.64,6.42h0Zm-9,3.57c0.72-.08,1.45-0.13,2.16-0.25a11.48,11.48,0,0,0,5-2.13,0.34,0.34,0,0,0,.13-0.25,12.83,12.83,0,0,0-.2-1.77A7.26,7.26,0,0,0,6659.93,50a0.57,0.57,0,0,0,.27.55,12.43,12.43,0,0,0,7,2.26h0Z" transform="translate(-6652.2 -25)"/><path class="a" d="M6667.21,30.33a4.75,4.75,0,1,1-4.76,4.74A4.87,4.87,0,0,1,6667.21,30.33Zm0,7.46a2.71,2.71,0,1,0-2.7-2.7A2.63,2.63,0,0,0,6667.2,37.78Z" transform="translate(-6652.2 -25)"/></svg>