<svg xmlns="http://www.w3.org/2000/svg" viewBox="0 0 51.61 31.85"><defs><style>.a{fill:#d63322;}.b{fill:#fff;}</style></defs><title>button-call</title><rect class="a" width="51.61" height="31.85" rx="4.38" ry="4.38"/><path class="b" d="M85.09,6206.69a2.68,2.68,0,0,1-.87,1.33,4.92,4.92,0,0,1-3,1.48,6.47,6.47,0,0,1-1.52-.06,11.09,11.09,0,0,1-3-.87,16.77,16.77,0,0,1-2.85-1.58,22.67,22.67,0,0,1-3-2.43,35,35,0,0,1-2.56-2.73,16.68,16.68,0,0,1-2.27-3.41,8.73,8.73,0,0,1-.93-4.17,5.78,5.78,0,0,1,.71-2.68,6.53,6.53,0,0,1,1.29-1.5,1.58,1.58,0,0,1,.81-0.41,1.5,1.5,0,0,1,1.39.42l2.44,2.43c0.27,0.27.55,0.54,0.79,0.83a1.55,1.55,0,0,1,0,1.88c-0.38.42-.78,0.82-1.18,1.23-0.17.18-.36,0.34-0.52,0.49a14.64,14.64,0,0,0,6.94,6.95l1-1c0.18-.18.35-0.36,0.53-0.53a1.56,1.56,0,0,1,1.88-.27,3.16,3.16,0,0,1,.66.56l2.73,2.72a2,2,0,0,1,.49.91v0.45Z" transform="translate(-49.3 -6183.65)"/></svg>