<svg xmlns="http://www.w3.org/2000/svg" viewBox="0 0 51.61 31.85"><defs><style>.a{fill:#fff;}.b{fill:#d63322;}</style></defs><title>button-message</title><rect class="a" width="51.61" height="31.85" rx="4.38" ry="4.38"/><path class="b" d="M36.38,7.58a2,2,0,0,0-2-1.61H17.27a2,2,0,0,0-2.08,1.92c0,0.06,0,.12,0,0.17V19.19a2,2,0,0,0,2,2H20.5v3.94a0.66,0.66,0,0,0,.53.69,0.7,0.7,0,0,0,.67-0.17l4.22-4.22a0.5,0.5,0,0,1,.4-0.16H34.4a2,2,0,0,0,2-1.61,0.53,0.53,0,0,1,0-.09V7.65Zm-10.64,10h-6.5a0.67,0.67,0,1,1-.16-1.33H25.7a0.67,0.67,0,1,1,.16,1.33H25.74Zm6.69-3.48H19.23a0.67,0.67,0,1,1-.16-1.33H32.3a1.27,1.27,0,0,1,.31,0,0.67,0.67,0,0,1-.18,1.33h0Zm0-3.48H19.3a1.25,1.25,0,0,1-.29,0,0.66,0.66,0,0,1,.16-1.3H32.58a0.67,0.67,0,1,1-.14,1.33v0Z"/></svg>