<svg xmlns="http://www.w3.org/2000/svg" viewBox="0 0 51.61 31.85"><defs><style>.a{fill:#d63322;}.b{fill:#fff;}</style></defs><title>button-message</title><rect class="a" width="51.61" height="31.85" rx="4.38" ry="4.38"/><path class="b" d="M85.68,6240.93a2,2,0,0,0-2-1.61H66.57a2,2,0,0,0-2.08,2.09q0,5.57,0,11.13a2,2,0,0,0,2,2H69.8v0.25q0,1.84,0,3.69a0.66,0.66,0,0,0,.53.69A0.7,0.7,0,0,0,71,6259l4.22-4.22a0.5,0.5,0,0,1,.4-0.16h8.08a2,2,0,0,0,2-1.61,0.53,0.53,0,0,1,0-.09V6241A0.53,0.53,0,0,1,85.68,6240.93Zm-10.64,10h-6.5a0.67,0.67,0,1,1,0-1.33H75A0.67,0.67,0,1,1,75,6250.93Zm6.69-3.48H68.53a0.67,0.67,0,1,1,0-1.33H81.6a1.28,1.28,0,0,1,.31,0A0.66,0.66,0,0,1,81.73,6247.45Zm0-3.48H68.6a1.26,1.26,0,0,1-.29,0,0.66,0.66,0,0,1,.16-1.3H81.63a1.23,1.23,0,0,1,.25,0A0.66,0.66,0,0,1,81.74,6244Z" transform="translate(-49.3 -6233.35)"/></svg>