<svg xmlns="http://www.w3.org/2000/svg" viewBox="0 0 22.01 31.22"><defs><style>.a{fill:#d63322;}</style></defs><title>location-distance</title><path class="a" d="M85.64,6033a11.05,11.05,0,0,1-2,6.26c-2.06,3-4,6.06-5.86,9.14-0.8,1.29-1.59,2.59-2.38,3.89a0.86,0.86,0,0,1-1.57,0l-7.34-11.68c-0.39-.62-0.82-1.21-1.21-1.83a11.41,11.41,0,0,1,3.79-15.67A10.85,10.85,0,0,1,84,6026.94,11.65,11.65,0,0,1,85.64,6033Zm-6.44-.18c0-.34-0.07-0.68-0.14-1a4.53,4.53,0,0,0-6.18-3.26,4.69,4.69,0,0,0-2.53,5.86,4.53,4.53,0,0,0,5.16,3A4.7,4.7,0,0,0,79.21,6032.79Z" transform="translate(-63.63 -6021.54)"/></svg>