<svg xmlns="http://www.w3.org/2000/svg" viewBox="0 0 48 48"><defs><style>.a{fill:#fff;}.b{fill:#d63322;}</style></defs><title>logo-white</title><rect class="a" width="48" height="48" rx="5.2" ry="5.2"/><path class="b" d="M6386.55,50.87a5.24,5.24,0,0,0,1.21-.19v0a16.05,16.05,0,0,1,2.7-1.38l0.58,0.26a1,1,0,0,1,.1.45,2.61,2.61,0,0,1-1.55,2,4.84,4.84,0,0,1-2.51.87,4.12,4.12,0,0,1-4.35-3.06,22.76,22.76,0,0,1-.48-5.83,57.77,57.77,0,0,1,.58-6.75,57.76,57.76,0,0,0,.58-6.75,2.31,2.31,0,0,0-.14-0.66,2.3,2.3,0,0,1-.14-0.66,0.93,0.93,0,0,1,.74-0.81,3.27,3.27,0,0,1,1.19-.23q2.32,0,2.32.9a7.59,7.59,0,0,1-.3,1.84q-0.33,1.32-.39,1.8a116.27,116.27,0,0,0-1,13.36Q6385.7,50,6386.55,50.87Z" transform="translate(-6375.98 -16)"/><path class="b" d="M6399.81,44.78h0.13q0.9,0,1.72-2t1.4-2q0.74,0,.74,1.16a6.14,6.14,0,0,1-1.19,3.5,4.26,4.26,0,0,1-2.93,2.12,11.73,11.73,0,0,1-1.35,3.66,4,4,0,0,1-3.48,1.51,5.4,5.4,0,0,1-4.54-2.09,7.75,7.75,0,0,1-1.48-4.92,6.69,6.69,0,0,1,.19-1.83l0.26-.84a8.75,8.75,0,0,1,1.55-3,3.67,3.67,0,0,1,2.83-1.57,5.6,5.6,0,0,1,4,2.16A7.2,7.2,0,0,1,6399.81,44.78Zm-7.6,2.14a6.35,6.35,0,0,0,.42,2.41,1.89,1.89,0,0,0,1.74,1.44q1,0,1.9-1.77a6.07,6.07,0,0,0,.77-2.6,12.15,12.15,0,0,0-.87-2,7,7,0,0,1-.87-3,1.59,1.59,0,0,0-.64-0.16q-1.1,0-1.84,2.31A10.9,10.9,0,0,0,6392.21,46.92Z" transform="translate(-6375.98 -16)"/><path class="b" d="M6405.93,50.87a5.24,5.24,0,0,0,1.21-.19v0a16.05,16.05,0,0,1,2.7-1.38l0.58,0.26a1,1,0,0,1,.1.45,2.61,2.61,0,0,1-1.55,2,4.84,4.84,0,0,1-2.51.87,4.12,4.12,0,0,1-4.35-3.06,22.76,22.76,0,0,1-.48-5.83,57.77,57.77,0,0,1,.58-6.75,57.76,57.76,0,0,0,.58-6.75,2.31,2.31,0,0,0-.14-0.66,2.3,2.3,0,0,1-.14-0.66,0.93,0.93,0,0,1,.74-0.81,3.27,3.27,0,0,1,1.19-.23q2.32,0,2.32.9a7.59,7.59,0,0,1-.3,1.84q-0.33,1.32-.39,1.8a116.27,116.27,0,0,0-1,13.36Q6405.08,50,6405.93,50.87Z" transform="translate(-6375.98 -16)"/><path class="b" d="M6409.07,46.94q0-.39.16-1.8,0-.64.11-1.92a3,3,0,0,1,.58-1.84,2.22,2.22,0,0,1,1.72-.56,1.32,1.32,0,0,1,1.35.55,35,35,0,0,0-.55,7q0,2.29.84,2.29a7.57,7.57,0,0,0,1.84-.79,6.14,6.14,0,0,1,2.06-.79,0.5,0.5,0,0,1,.52.61,2.25,2.25,0,0,1-.93,1.35,8,8,0,0,1-1.64,1.26,4.77,4.77,0,0,1-2.06.39,3.44,3.44,0,0,1-3.35-1.8A9.26,9.26,0,0,1,6409.07,46.94Z" transform="translate(-6375.98 -16)"/><path class="b" d="M6411.54,27.17a3.76,3.76,0,0,0-4.05,4,9.13,9.13,0,0,0,1.09,3.39c0.31,0.61.69,1.28,1.1,2,0.49,0.83,1,1.66,1.57,2.43l0.27,0.36c0.09-.11.18-0.22,0.27-0.36,0.54-.78,1.08-1.59,1.58-2.42,0.41-.67.77-1.35,1.08-2a8.85,8.85,0,0,0,1.13-3.39A3.83,3.83,0,0,0,6411.54,27.17Zm0,6.1a2.28,2.28,0,1,1,2.28-2.27A2.28,2.28,0,0,1,6411.52,33.26Z" transform="translate(-6375.98 -16)"/></svg>