<svg xmlns="http://www.w3.org/2000/svg" viewBox="0 0 100 100"><defs><style>.a{fill:#d63322;}.b{fill:#fff;}</style></defs><title>loli-logo</title><rect class="a" width="100" height="100" rx="10.84" ry="10.84"/><path class="b" d="M612,209.68a10.92,10.92,0,0,0,2.52-.4v-0.07a33.44,33.44,0,0,1,5.64-2.88l1.21,0.54a2.08,2.08,0,0,1,.2.94q0,2.15-3.22,4.16a10.08,10.08,0,0,1-5.23,1.81q-7,0-9.06-6.37-1-3.15-1-12.14a120.36,120.36,0,0,1,1.21-14.05,120.34,120.34,0,0,0,1.21-14.05,4.81,4.81,0,0,0-.3-1.38,4.8,4.8,0,0,1-.3-1.38,1.93,1.93,0,0,1,1.54-1.68,6.81,6.81,0,0,1,2.48-.47q4.83,0,4.83,1.88a15.82,15.82,0,0,1-.62,3.82q-0.69,2.75-.82,3.76a242.22,242.22,0,0,0-2.05,27.84Q610.26,207.81,612,209.68Z" transform="translate(-590 -137.04)"/><path class="b" d="M639.64,197h0.27q1.88,0,3.59-4.26t2.92-4.26q1.54,0,1.54,2.41a12.79,12.79,0,0,1-2.48,7.29q-2.62,3.95-6.1,4.42-1.41,5.69-2.82,7.63-2.28,3.14-7.25,3.14a11.25,11.25,0,0,1-9.46-4.35,16.15,16.15,0,0,1-3.09-10.24,13.94,13.94,0,0,1,.4-3.81l0.54-1.74a18.23,18.23,0,0,1,3.22-6.22q2.68-3.28,5.9-3.28,4.16,0,8.32,4.49T639.64,197Zm-15.83,4.46a13.22,13.22,0,0,0,.87,5q1.21,3,3.62,3,2.08,0,4-3.68a12.65,12.65,0,0,0,1.61-5.42,25.31,25.31,0,0,0-1.81-4.08,14.64,14.64,0,0,1-1.81-6.15,3.31,3.31,0,0,0-1.34-.33q-2.28,0-3.82,4.81A22.71,22.71,0,0,0,623.81,201.46Z" transform="translate(-590 -137.04)"/><path class="b" d="M652.39,209.68a10.92,10.92,0,0,0,2.52-.4v-0.07a33.44,33.44,0,0,1,5.64-2.88l1.21,0.54a2.08,2.08,0,0,1,.2.94q0,2.15-3.22,4.16a10.08,10.08,0,0,1-5.23,1.81q-7,0-9.06-6.37-1-3.15-1-12.14a120.36,120.36,0,0,1,1.21-14.05,120.34,120.34,0,0,0,1.21-14.05,4.81,4.81,0,0,0-.3-1.38,4.8,4.8,0,0,1-.3-1.38,1.93,1.93,0,0,1,1.54-1.68,6.81,6.81,0,0,1,2.48-.47q4.83,0,4.83,1.88a15.82,15.82,0,0,1-.62,3.82q-0.69,2.75-.82,3.76a242.22,242.22,0,0,0-2.05,27.84Q650.62,207.81,652.39,209.68Z" transform="translate(-590 -137.04)"/><path class="b" d="M658.94,201.5q0.07-.8.34-3.76,0.07-1.34.23-4a6.33,6.33,0,0,1,1.21-3.82,4.62,4.62,0,0,1,3.59-1.17q2.35,0,2.82,1.14A73,73,0,0,0,666,204.52q0,4.76,1.74,4.76a15.77,15.77,0,0,0,3.82-1.64,12.79,12.79,0,0,1,4.29-1.64,1,1,0,0,1,1.07,1.27q0,1.07-1.95,2.82a16.68,16.68,0,0,1-3.42,2.62,9.94,9.94,0,0,1-4.29.8q-5,0-7-3.76Q658.94,207.07,658.94,201.5Z" transform="translate(-590 -137.04)"/><path class="b" d="M664.08,160.3c-5.19,0-8.43,3.26-8.44,8.41,0,1.59.84,4.07,2.28,7.07,0.65,1.27,1.45,2.67,2.28,4.08,1,1.73,2.15,3.47,3.27,5.06l0.56,0.75c0.19-.23.38-0.47,0.56-0.75,1.13-1.64,2.25-3.32,3.28-5,0.85-1.4,1.6-2.8,2.26-4.07,1.5-3,2.35-5.47,2.36-7.06A8,8,0,0,0,664.08,160.3Zm0,12.7a4.74,4.74,0,1,1,4.75-4.73A4.76,4.76,0,0,1,664,173Z" transform="translate(-590 -137.04)"/></svg>