<svg xmlns="http://www.w3.org/2000/svg" viewBox="0 0 20 20"><defs><style>.a{fill:#939598;}</style></defs><title>report-icon</title><path class="a" d="M5117.47,3769.37a1.3,1.3,0,1,1,1.29-1.3,1.32,1.32,0,0,1-1.29,1.3h0Z" transform="translate(-5107.47 -3754.23)"/><polygon class="a" points="10.99 10.85 9.01 10.85 9.01 4.86 10.99 4.86 10.99 10.85 10.99 10.85"/><path class="a" d="M5117.47,3754.23a10,10,0,1,0,10,10A10,10,0,0,0,5117.47,3754.23Zm0,18.42a8.42,8.42,0,1,1,8.42-8.42A8.42,8.42,0,0,1,5117.47,3772.65Z" transform="translate(-5107.47 -3754.23)"/></svg>