<svg xmlns="http://www.w3.org/2000/svg" viewBox="0 0 60 50"><defs><style>.a{fill:#d63322;}.b{fill:#fff;}</style></defs><title>search-icon-2</title><rect class="a" width="60" height="50" rx="9.13" ry="9.13"/><path class="b" d="M3012.91,8355.6a10.93,10.93,0,1,1,1.81-1.81l0.31,0.33q3.62,3.62,7.24,7.23a1.14,1.14,0,0,1,.34,1.34,1.44,1.44,0,0,1-1.34,1,1.57,1.57,0,0,1-.84-0.43q-3.64-3.6-7.24-7.23A2.82,2.82,0,0,1,3012.91,8355.6Zm-6.84-16.94a8.35,8.35,0,1,0,8.33,8.37A8.35,8.35,0,0,0,3006.08,8338.66Z" transform="translate(-2978.89 -8324.85)"/></svg>