<svg xmlns="http://www.w3.org/2000/svg" viewBox="0 0 60 50"><defs><style>.a{fill:#d63322;}.b{fill:#fff;}</style></defs><title>search-icon</title><path class="a" d="M0,0H50.87A9.13,9.13,0,0,1,60,9.13V40.87A9.13,9.13,0,0,1,50.87,50H0a0,0,0,0,1,0,0V0A0,0,0,0,1,0,0Z"/><path class="b" d="M1604.54,4849.26a10.93,10.93,0,1,1,1.81-1.81l0.31,0.33q3.62,3.62,7.24,7.23a1.14,1.14,0,0,1,.34,1.34,1.44,1.44,0,0,1-1.34,1,1.57,1.57,0,0,1-.84-0.43q-3.64-3.6-7.24-7.23A2.82,2.82,0,0,1,1604.54,4849.26Zm-6.84-16.94a8.35,8.35,0,1,0,8.33,8.37A8.35,8.35,0,0,0,1597.7,4832.32Z" transform="translate(-1570.51 -4818.5)"/></svg>