<svg xmlns="http://www.w3.org/2000/svg" viewBox="0 0 29.99 30"><defs><style>.a{opacity:0.7;}.b,.c{fill:#414042;}.c{fill-rule:evenodd;}</style></defs><title>social-youtube</title><g class="a"><path class="b" d="M1629.75,1223.25a15,15,0,1,1-10.6,4.39,15,15,0,0,1,10.6-4.39h0Zm9.77,5.22a13.82,13.82,0,1,0,4.05,9.78,13.77,13.77,0,0,0-4.05-9.78h0Z" transform="translate(-1614.76 -1223.25)"/><path class="c" d="M1637.26,1235.06a3.6,3.6,0,0,0-.61-1.59,2.19,2.19,0,0,0-1.53-.68c-2.14-.16-5.36-0.16-5.36-0.16h0s-3.2,0-5.35.16a2.18,2.18,0,0,0-1.54.68,3.6,3.6,0,0,0-.61,1.59,24.39,24.39,0,0,0-.16,2.57v1.22a24,24,0,0,0,.16,2.57,3.65,3.65,0,0,0,.61,1.59,2.51,2.51,0,0,0,1.69.68c1.22,0.12,5.21.17,5.21,0.17s3.21,0,5.36-.17a2.15,2.15,0,0,0,1.53-.68,3.65,3.65,0,0,0,.61-1.59,25.38,25.38,0,0,0,.15-2.57v-1.22c0-1.28-.15-2.57-0.15-2.57h0Zm-4.95,3-4.14,2.23v-4.48l1.88,1Z" transform="translate(-1614.76 -1223.25)"/></g></svg>