<svg xmlns="http://www.w3.org/2000/svg" viewBox="0 0 29.99 30"><defs><style>.a{opacity:0.7;}.b,.c{fill:#414042;}.c{fill-rule:evenodd;}</style></defs><title>social-twitter</title><g class="a"><path class="b" d="M1679.86,1223.25a15,15,0,1,1-10.6,4.39,15,15,0,0,1,10.6-4.39h0Zm9.77,5.22a13.82,13.82,0,1,0,4.05,9.78,13.77,13.77,0,0,0-4.05-9.78h0Z" transform="translate(-1664.86 -1223.25)"/><path class="c" d="M1687.52,1233.58a6.69,6.69,0,0,1-1.8.49,3.1,3.1,0,0,0,1.39-1.72,6.4,6.4,0,0,1-2,.76,3.15,3.15,0,0,0-5.44,2.11,3.23,3.23,0,0,0,.09.71,8.92,8.92,0,0,1-6.48-3.23,3.05,3.05,0,0,0,1,4.13,3,3,0,0,1-1.42-.38v0a2.93,2.93,0,0,0,.22,1.11,3.13,3.13,0,0,0,2.31,1.91,3.09,3.09,0,0,1-.83.12,2.8,2.8,0,0,1-.59-0.07,3.17,3.17,0,0,0,2.93,2.16A6.35,6.35,0,0,1,1673,1243c-0.26,0-.5,0-0.76,0a9.07,9.07,0,0,0,4.82,1.39,8.74,8.74,0,0,0,8.73-6.93,8.5,8.5,0,0,0,.21-1.87v-0.4a6.5,6.5,0,0,0,1.56-1.6h0Z" transform="translate(-1664.86 -1223.25)"/></g></svg>