<svg xmlns="http://www.w3.org/2000/svg" viewBox="0 0 30 30"><defs><style>.a{opacity:0.7;}.b,.c{fill:#414042;}.c{fill-rule:evenodd;}</style></defs><title>social-instagram</title><g class="a"><path class="b" d="M1579.64,1223.25a15,15,0,1,1-10.61,4.39,14.93,14.93,0,0,1,10.61-4.39h0Zm9.78,5.22a13.85,13.85,0,1,0,4,9.78,13.82,13.82,0,0,0-4-9.78h0Z" transform="translate(-1564.64 -1223.25)"/><path class="c" d="M1576.31,1238.25a3.34,3.34,0,1,1,3.33,3.34,3.34,3.34,0,0,1-3.33-3.34h0Zm7.47-7.84h-8.28a3.72,3.72,0,0,0-3.71,3.71v8.28a3.72,3.72,0,0,0,3.71,3.71h8.28a3.72,3.72,0,0,0,3.71-3.71v-8.28a3.71,3.71,0,0,0-3.71-3.71h0Zm-8.1,1.21h7.93a2.67,2.67,0,0,1,2.67,2.67v7.93a2.67,2.67,0,0,1-2.67,2.67h-7.93a2.67,2.67,0,0,1-2.67-2.67v-7.93a2.67,2.67,0,0,1,2.67-2.67h0Zm8.72,1.12a0.78,0.78,0,1,0,.78.78,0.78,0.78,0,0,0-.78-0.78h0Zm0.09,5.51a4.85,4.85,0,1,0-4.85,4.85,4.85,4.85,0,0,0,4.85-4.85h0Z" transform="translate(-1564.64 -1223.25)"/></g></svg>