<svg xmlns="http://www.w3.org/2000/svg" viewBox="0 0 30 30"><defs><style>.a{opacity:0.7;}.b,.c{fill:#414042;}.c{fill-rule:evenodd;}</style></defs><title>socail-fb</title><g class="a"><path class="b" d="M1529.52,1223.25a15,15,0,1,1-10.61,4.39,14.94,14.94,0,0,1,10.61-4.39h0Zm9.78,5.22a13.85,13.85,0,1,0,4,9.78,13.82,13.82,0,0,0-4-9.78h0Z" transform="translate(-1514.52 -1223.25)"/><path class="c" d="M1530.67,1235.18V1234a0.64,0.64,0,0,1,.67-0.73h1.72v-2.62h-2.37a3,3,0,0,0-3.22,3.21v1.38h-1.53v3.06h1.54v7.66h3.07v-7.66h2.27l0.1-1.2,0.18-1.86h-2.43Z" transform="translate(-1514.52 -1223.25)"/></g></svg>