<svg xmlns="http://www.w3.org/2000/svg" viewBox="0 0 25.16 24"><defs><style>.a{fill:#6d6e71;}</style></defs><title>star-grey</title><path class="a" d="M4027.22,2236.94l2.46,7.56a0.75,0.75,0,0,0,.71.52h7.95a0.75,0.75,0,0,1,.44,1.36l-6.43,4.67a0.75,0.75,0,0,0-.27.84l2.46,7.56a0.75,0.75,0,0,1-1.15.84l-6.43-4.67a0.75,0.75,0,0,0-.88,0l-6.43,4.67a0.75,0.75,0,0,1-1.15-.84l2.46-7.56a0.75,0.75,0,0,0-.27-0.84l-6.43-4.67a0.75,0.75,0,0,1,.44-1.36h7.95a0.75,0.75,0,0,0,.71-0.52l2.46-7.56A0.75,0.75,0,0,1,4027.22,2236.94Z" transform="translate(-4013.93 -2236.42)"/></svg>