<svg xmlns="http://www.w3.org/2000/svg" viewBox="0 0 25.93 25.94"><defs><style>.a{fill:#2bb673;}</style></defs><title>whatsapp-icon-green</title><path class="a" d="M6431.51,699l0.63-1.86c0.54-1.6,1.08-3.19,1.62-4.79a0.4,0.4,0,0,0,0-.29,12.62,12.62,0,0,1,8.39-18.72,12.45,12.45,0,0,1,12.18,4,11.83,11.83,0,0,1,3.11,7.1,12.68,12.68,0,0,1-10.7,13.71,12.58,12.58,0,0,1-7.84-1.27,0.71,0.71,0,0,0-.6-0.05l-6.5,2.07Zm3.2-3.14,0.25-.07,3.69-1.17a0.49,0.49,0,0,1,.33,0c0.27,0.14.52,0.31,0.8,0.44a10.54,10.54,0,0,0,9.53.17,10.39,10.39,0,0,0,4.55-4.06,10.63,10.63,0,0,0-7.71-16.05,10.76,10.76,0,0,0-10.29,4.58,10.33,10.33,0,0,0-1.7,4.22,10.5,10.5,0,0,0,0,3.49,10.33,10.33,0,0,0,1.77,4.28,0.36,0.36,0,0,1,.05.37c-0.24.69-.47,1.38-0.71,2.07Z" transform="translate(-6431.51 -673.02)"/><path class="a" d="M6440.76,679.9h0.16a0.72,0.72,0,0,1,.83.55c0.32,0.78.64,1.56,1,2.33a0.78,0.78,0,0,1-.18.79c-0.19.28-.43,0.53-0.65,0.79a0.45,0.45,0,0,0-.07.63,8.42,8.42,0,0,0,4.33,3.68,0.45,0.45,0,0,0,.6-0.17c0.31-.36.6-0.73,0.9-1.1a0.52,0.52,0,0,1,.77-0.2l2.5,1.18a0.46,0.46,0,0,1,.26.47,2.44,2.44,0,0,1-1.57,2.4,3.08,3.08,0,0,1-2.35.21c-1-.33-1.93-0.65-2.86-1.06a9,9,0,0,1-2.75-2,14.16,14.16,0,0,1-2.73-3.74,3.8,3.8,0,0,1-.19-3.07,3.41,3.41,0,0,1,1-1.43A1.22,1.22,0,0,1,6440.76,679.9Z" transform="translate(-6431.51 -673.02)"/></svg>